<svg xmlns="http://www.w3.org/2000/svg" viewBox="0 0 300 400"
     role="img" aria-label="stevie-kenarban portrait">

  <!-- Backdrop -->
  <rect width="300" height="400" fill="#b0c8e4"/>

  <!-- Long/medium hair panels — sit in front of clothes but behind head -->
  

  <!-- Clothes / body silhouette -->
  <path d="M 46 400 L 64 322 Q 102 294 150 290 Q 198 294 236 322 L 254 400 Z"
        fill="#1c3e7a"/>

  <!-- Neck -->
  <rect x="133" y="246" width="34" height="46" rx="6" fill="#4a2808"/>

  <!-- Ears — behind head circle so face cleanly overlaps -->
  <ellipse cx="76"  cy="192" rx="12" ry="16" fill="#4a2808"/>
  <ellipse cx="224" cy="192" rx="12" ry="16" fill="#4a2808"/>

  <!-- Head -->
  <circle cx="150" cy="186" r="74" fill="#4a2808"/>

  <!-- Hair cap — on top of head -->
  <ellipse cx="150" cy="138" rx="74" ry="54" fill="#1a0e06"/><path d="M 76 170 Q 90 126 150 118 Q 210 126 224 170" fill="#1a0e06"/>

  <!-- Eyes — whites -->
  <ellipse cx="121" cy="188" rx="10" ry="8" fill="white"/>
  <ellipse cx="179" cy="188" rx="10" ry="8" fill="white"/>
  <!-- Irises -->
  <circle cx="122" cy="189" r="5.5" fill="#1a0e06"/>
  <circle cx="180" cy="189" r="5.5" fill="#1a0e06"/>
  <!-- Specular highlights -->
  <circle cx="124" cy="187" r="2" fill="white"/>
  <circle cx="182" cy="187" r="2" fill="white"/>

  <!-- Eyebrows -->
  <path d="M 107 172 Q 121 165 135 172"
        stroke="#1a0e06" stroke-width="2.5" fill="none" stroke-linecap="round"/>
  <path d="M 165 172 Q 179 165 193 172"
        stroke="#1a0e06" stroke-width="2.5" fill="none" stroke-linecap="round"/>

  <!-- Nose (soft shadow nostrils) -->
  <ellipse cx="143" cy="212" rx="5" ry="3.5" fill="rgba(0,0,0,0.10)"/>
  <ellipse cx="157" cy="212" rx="5" ry="3.5" fill="rgba(0,0,0,0.10)"/>

  <!-- Mouth -->
  <path d="M 132 226 Q 150 237 168 226"
        stroke="#b06060" stroke-width="3" fill="none" stroke-linecap="round"/>

  <!-- Glasses -->
  

</svg>
